<svg width="44" height="35" viewBox="0 0 44 35" fill="none" xmlns="http://www.w3.org/2000/svg">
<path d="M6.44091 22.4503L12.5381 12.6443L0.997309 12.2669L6.44091 22.4503ZM26.5878 0.499286C21.4415 0.276145 16.8077 1.12688 13.1597 3.2151C9.48501 5.31857 6.87215 8.64522 5.76325 13.2183L7.70692 13.6896C8.68653 9.64973 10.9564 6.78082 14.1533 4.95085C17.3768 3.10563 21.6035 2.28505 26.5012 2.49741L26.5878 0.499286Z" fill="#6F7C8D"/>
<path d="M38.2816 12.7324L31.8066 22.2932L43.324 23.1203L38.2816 12.7324ZM17.2941 33.8811C22.4278 34.3047 27.0912 33.6353 30.8179 31.691C34.5718 29.7324 37.3124 26.5101 38.5988 21.9838L36.6749 21.437C35.5385 25.4356 33.1586 28.2139 29.8927 29.9178C26.5997 31.6359 22.3442 32.2911 17.4585 31.8879L17.2941 33.8811Z" fill="#6F7C8D"/>
</svg>
