<svg width="83" height="80" viewBox="0 0 83 80" fill="none" xmlns="http://www.w3.org/2000/svg">
<path d="M36.9184 72.6716L37.2022 71.1987L37.2022 71.1987L36.9184 72.6716ZM61.6792 67.9056L60.8688 66.6433L61.6792 67.9056ZM76.3205 47.3765L77.7779 47.7316L77.7779 47.7316L76.3205 47.3765ZM72.7625 22.4135L74.0626 21.6654L74.0626 21.6654L72.7625 22.4135ZM52.9686 6.79256L52.5432 8.23097L52.9686 6.79256ZM27.8623 9.13421L28.5464 10.4691L28.5464 10.4691L27.8623 9.13421ZM11.2986 28.1462L9.88254 27.6515L9.88254 27.6515L11.2986 28.1462ZM12.4184 53.3366L17.5174 36.7837L0.632599 40.6443L12.4184 53.3366ZM14.4811 59.915C19.7645 67.3268 27.6968 72.4219 36.6345 74.1445L37.2022 71.1987C29.0211 69.6219 21.7602 64.9581 16.924 58.1736L14.4811 59.915ZM36.6345 74.1445C45.5721 75.867 54.8299 74.0851 62.4895 69.1679L60.8688 66.6433C53.8575 71.1443 45.3834 72.7755 37.2022 71.1987L36.6345 74.1445ZM62.4895 69.1679C70.1491 64.2506 75.6233 56.575 77.7779 47.7316L74.8631 47.0215C72.891 55.1164 67.8801 62.1423 60.8688 66.6433L62.4895 69.1679ZM77.7779 47.7316C79.9324 38.8881 78.6021 29.5548 74.0626 21.6654L71.4624 23.1616C75.6176 30.3832 76.8353 38.9265 74.8631 47.0215L77.7779 47.7316ZM74.0626 21.6654C69.5231 13.7761 62.1224 7.93558 53.394 5.35415L52.5432 8.23097C60.5328 10.5939 67.3071 15.94 71.4624 23.1616L74.0626 21.6654ZM53.394 5.35415C44.6656 2.77271 35.2787 3.64823 27.1782 7.79928L28.5464 10.4691C35.9612 6.66944 44.5536 5.86803 52.5432 8.23097L53.394 5.35415ZM27.1782 7.79928C19.0777 11.9503 12.8848 19.0587 9.88254 27.6515L12.7147 28.641C15.4628 20.7755 21.1315 14.2688 28.5464 10.4691L27.1782 7.79928ZM9.88254 27.6515C8.46016 31.7225 7.80564 35.979 7.90978 40.2131L10.9089 40.1394C10.8135 36.2635 11.4127 32.3675 12.7147 28.641L9.88254 27.6515Z" fill="#7B869A"/>
<path d="M41 25V41.1765L54 50" stroke="#7B869A" stroke-width="3"/>
</svg>
