<svg width="83" height="80" viewBox="0 0 83 80" fill="none" xmlns="http://www.w3.org/2000/svg">
<path d="M36.9182 72.6716L37.2021 71.1987L37.2021 71.1987L36.9182 72.6716ZM61.679 67.9056L60.8687 66.6433L61.679 67.9056ZM76.3204 47.3765L77.7778 47.7316L77.7778 47.7316L76.3204 47.3765ZM72.7624 22.4135L74.0625 21.6654L74.0625 21.6654L72.7624 22.4135ZM52.9685 6.79256L52.5431 8.23097L52.9685 6.79256ZM27.8622 9.13421L28.5462 10.4691L28.5462 10.4691L27.8622 9.13421ZM11.2985 28.1462L9.88242 27.6515L9.88242 27.6515L11.2985 28.1462ZM12.4182 53.3366L17.5173 36.7837L0.632477 40.6443L12.4182 53.3366ZM14.481 59.915C19.7644 67.3268 27.6967 72.4219 36.6344 74.1445L37.2021 71.1987C29.021 69.6219 21.76 64.9581 16.9239 58.1736L14.481 59.915ZM36.6344 74.1445C45.572 75.867 54.8298 74.0851 62.4894 69.1679L60.8687 66.6433C53.8574 71.1443 45.3832 72.7755 37.2021 71.1987L36.6344 74.1445ZM62.4894 69.1679C70.149 64.2506 75.6232 56.575 77.7778 47.7316L74.863 47.0215C72.8908 55.1164 67.88 62.1423 60.8687 66.6433L62.4894 69.1679ZM77.7778 47.7316C79.9323 38.8881 78.602 29.5548 74.0625 21.6654L71.4622 23.1616C75.6175 30.3832 76.8352 38.9265 74.863 47.0215L77.7778 47.7316ZM74.0625 21.6654C69.523 13.7761 62.1223 7.93558 53.3939 5.35415L52.5431 8.23097C60.5327 10.5939 67.307 15.94 71.4622 23.1616L74.0625 21.6654ZM53.3939 5.35415C44.6655 2.77271 35.2785 3.64823 27.1781 7.79928L28.5462 10.4691C35.9611 6.66944 44.5535 5.86803 52.5431 8.23097L53.3939 5.35415ZM27.1781 7.79928C19.0776 11.9503 12.8847 19.0587 9.88242 27.6515L12.7145 28.641C15.4626 20.7755 21.1314 14.2688 28.5462 10.4691L27.1781 7.79928ZM9.88242 27.6515C8.46004 31.7225 7.80552 35.979 7.90965 40.2131L10.9087 40.1394C10.8134 36.2635 11.4125 32.3675 12.7145 28.641L9.88242 27.6515Z" fill="#01AEF2"/>
<path d="M41 25V41.1765L54 50" stroke="#01AEF2" stroke-width="3"/>
</svg>
