<svg width="32" height="32" viewBox="0 0 32 32" fill="none" xmlns="http://www.w3.org/2000/svg">
<circle cx="16" cy="16" r="16" fill="#227FBB"/>
<path fill-rule="evenodd" clip-rule="evenodd" d="M15.5061 21.0158C16.81 22.2173 18.5611 22.9461 20.4658 22.9461C24.5564 22.9461 27.8672 19.6097 27.8672 15.5062C27.8672 11.3902 24.5564 8.05371 20.4658 8.05371C18.5611 8.05371 16.81 8.78234 15.5061 9.98398C14.0105 11.3517 13.0645 13.3203 13.0645 15.5062C13.0646 17.6921 14.0105 19.6609 15.5061 21.0158Z" fill="#E9B040"/>
<path fill-rule="evenodd" clip-rule="evenodd" d="M26.8823 19.648C26.8823 19.5201 26.9846 19.418 27.1124 19.418C27.2529 19.418 27.355 19.5203 27.355 19.648C27.355 19.7888 27.2527 19.891 27.1124 19.891C26.9846 19.891 26.8823 19.7888 26.8823 19.648ZM27.1124 19.84C27.2147 19.84 27.3039 19.7503 27.3039 19.6482C27.3039 19.546 27.2145 19.4693 27.1124 19.4693C27.0227 19.4693 26.9335 19.546 26.9335 19.6482C26.9335 19.7503 27.0228 19.84 27.1124 19.84ZM27.0868 19.7632H27.0356V19.5459H27.125C27.1379 19.5459 27.1635 19.5459 27.1762 19.5588C27.2017 19.5714 27.2017 19.5844 27.2017 19.6099C27.2017 19.6355 27.1891 19.6611 27.1635 19.6611L27.2147 19.7634H27.1506L27.125 19.6737H27.0868V19.7632V19.6354H27.1379C27.1506 19.6354 27.1506 19.6224 27.1506 19.6098C27.1506 19.5969 27.1506 19.5969 27.1379 19.5842H27.0868V19.7632Z" fill="#E9B040"/>
<path fill-rule="evenodd" clip-rule="evenodd" d="M17.8972 14.7138C17.8716 14.4454 17.8204 14.1898 17.7693 13.9212H13.2441C13.2952 13.6528 13.3719 13.3972 13.4485 13.1415H17.552C17.4629 12.8724 17.3606 12.6078 17.2453 12.3489H13.7682C13.8961 12.0781 14.0369 11.8136 14.1901 11.5563H16.8108C16.6421 11.2833 16.4542 11.0227 16.2484 10.7765H14.7526C14.984 10.494 15.2361 10.2291 15.5068 9.98398C14.1902 8.79513 12.4516 8.05371 10.5342 8.05371C6.45639 8.05371 3.13281 11.3902 3.13281 15.5062C3.13281 19.6097 6.45639 22.9461 10.5342 22.9461C12.4516 22.9461 14.1901 22.2173 15.5068 21.0158C15.7734 20.775 16.0213 20.5143 16.2484 20.2359H14.7526C14.548 19.9803 14.3691 19.7247 14.1901 19.4433H16.8108C16.9755 19.1905 17.1208 18.9256 17.2454 18.6508H13.7682C13.6531 18.3951 13.5382 18.1395 13.4485 17.8708H17.552C17.6414 17.6152 17.7055 17.347 17.7691 17.0783C17.8203 16.8226 17.8714 16.5544 17.897 16.2857C17.9229 16.0265 17.9358 15.7662 17.9355 15.5058C17.9355 15.2378 17.9227 14.9694 17.8972 14.7138Z" fill="#CC2131"/>
<path fill-rule="evenodd" clip-rule="evenodd" d="M26.8823 17.2322C26.8823 17.0917 26.9846 16.9895 27.1124 16.9895C27.2529 16.9895 27.355 17.0918 27.355 17.2322C27.355 17.3601 27.2527 17.4752 27.1124 17.4752C26.9846 17.4752 26.8823 17.3599 26.8823 17.2322ZM27.1124 17.4111C27.2147 17.4111 27.3039 17.3343 27.3039 17.2322C27.3039 17.13 27.2145 17.0533 27.1124 17.0533C27.0227 17.0533 26.9335 17.13 26.9335 17.2322C26.9335 17.3343 27.0228 17.4111 27.1124 17.4111ZM27.0868 17.3343H27.0356V17.1299H27.1762C27.2017 17.1428 27.2017 17.1684 27.2017 17.194C27.2017 17.2066 27.1891 17.2322 27.1635 17.2451L27.2147 17.3345H27.1506L27.125 17.2578H27.0868V17.3343V17.2194H27.1124C27.125 17.2194 27.1379 17.2194 27.1379 17.2065C27.1506 17.2065 27.1506 17.1938 27.1506 17.1809C27.1506 17.1809 27.1506 17.1682 27.1379 17.1682C27.1379 17.1553 27.125 17.1682 27.1124 17.1682H27.0868V17.3343Z" fill="white"/>
<path fill-rule="evenodd" clip-rule="evenodd" d="M12.9873 17.654C12.7444 17.7178 12.5654 17.7563 12.3865 17.7563C12.003 17.7563 11.7728 17.5133 11.7728 17.0787C11.7728 16.9893 11.7856 16.8998 11.7984 16.7975L11.8496 16.5036L11.8879 16.2607L12.2331 14.1643H13L12.9105 14.6245H13.3963L13.2812 15.3915H12.7954L12.591 16.6442C12.5782 16.7083 12.5782 16.7465 12.5782 16.772C12.5782 16.9383 12.6549 17.0021 12.8466 17.0021C12.9361 17.0021 13.0127 16.9894 13.0894 16.9765L12.9873 17.654ZM15.4673 17.6284C15.1861 17.7051 14.9305 17.7433 14.6491 17.7433C13.7798 17.7433 13.2812 17.2831 13.2812 16.3758C13.2812 15.3146 13.8693 14.5477 14.6873 14.5477C15.3392 14.5477 15.7611 14.9823 15.7611 15.6596C15.7611 15.89 15.7355 16.1072 15.6717 16.414H14.0738C14.061 16.4651 14.061 16.4907 14.061 16.5163C14.061 16.8742 14.3038 17.0531 14.7641 17.0531C15.058 17.0531 15.3137 16.9893 15.595 16.8616L15.4673 17.6284ZM14.9943 15.8004V15.647C14.9943 15.3914 14.8536 15.2507 14.6108 15.2507C14.355 15.2507 14.1761 15.4424 14.0994 15.8003L14.9943 15.8004ZM6.85134 17.6922H6.05877L6.519 14.7906L5.4836 17.6922H4.93401L4.87007 14.8034L4.38427 17.6922H3.60449L4.23081 13.9213H5.39409L5.41966 16.248L6.19944 13.9213H7.47781L6.85134 17.6922ZM8.78175 16.3246C8.70502 16.3117 8.67945 16.3117 8.62829 16.3117C8.16807 16.3117 7.93803 16.4906 7.93803 16.7719C7.93803 16.9637 8.05313 17.0916 8.23201 17.0916C8.61551 17.0916 8.76881 16.7719 8.78175 16.3246ZM9.42086 17.6922H8.7306L8.74339 17.3728C8.56435 17.6155 8.32153 17.7433 7.89967 17.7433C7.51617 17.7433 7.18383 17.3984 7.18383 16.8998C7.18383 16.7593 7.20941 16.6315 7.24777 16.5036C7.3755 16.0305 7.84852 15.7367 8.57714 15.7237C8.66666 15.7237 8.80718 15.7237 8.93506 15.7367C8.96049 15.6343 8.96049 15.5958 8.96049 15.532C8.96049 15.3274 8.79439 15.2635 8.42368 15.2635C8.19365 15.2635 7.93788 15.3019 7.759 15.3658L7.64391 15.3914L7.59275 15.404L7.70785 14.7137C8.07855 14.5987 8.34695 14.5477 8.64108 14.5477C9.33134 14.5477 9.70205 14.8672 9.70205 15.4552C9.70205 15.6086 9.71484 15.7237 9.66369 16.0561L9.4848 17.1554L9.45923 17.3472L9.44644 17.5007L9.43365 17.603L9.42086 17.6922ZM19.3278 14.65C19.5578 14.65 19.7624 14.7139 20.0436 14.8544L20.1842 14.0363C20.1074 13.9979 20.0818 13.9979 19.9797 13.9595L19.6603 13.87C19.558 13.8445 19.4303 13.8317 19.2894 13.8317C18.893 13.8317 18.663 13.8445 18.4203 13.9851C18.2924 14.0746 18.1262 14.1897 17.9471 14.3942L17.8448 14.3686L17.0267 14.9438L17.0652 14.6242H16.2213L15.723 17.692H16.5285L16.8224 16.0433C16.8224 16.0433 16.9376 15.8129 16.9886 15.7365C17.1421 15.5447 17.2698 15.5447 17.4359 15.5447H17.5C17.4732 15.7395 17.4603 15.936 17.4615 16.1326C17.4615 17.1297 18.0239 17.7561 18.8931 17.7561C19.1105 17.7561 19.3025 17.7306 19.5963 17.6538L19.7372 16.7847C19.4816 16.9252 19.2514 16.9891 19.0595 16.9891C18.5867 16.9891 18.3052 16.6312 18.3052 16.0688C18.3049 15.2379 18.7269 14.65 19.3278 14.65ZM26.1153 13.9213L25.9366 14.9951C25.7448 14.7011 25.5146 14.5604 25.2078 14.5604C24.7858 14.5604 24.3897 14.8033 24.1467 15.2635V15.2509L23.6355 14.9439L23.6866 14.6244H22.8301L22.3443 17.6922H23.1369L23.4054 16.0434C23.4054 16.0434 23.6099 15.8131 23.661 15.7367C23.7889 15.5832 23.9167 15.5575 24.019 15.5448C23.9296 15.8004 23.8784 16.1072 23.8784 16.4525C23.8784 17.2195 24.2746 17.7307 24.8625 17.7307C25.1567 17.7307 25.3867 17.6284 25.6039 17.3854L25.5657 17.6922H26.3201L26.9336 13.9213H26.1153ZM25.1312 16.9637C24.8627 16.9637 24.7222 16.7593 24.7222 16.3628C24.7222 15.7619 24.9778 15.3274 25.3483 15.3274C25.6295 15.3274 25.7703 15.5448 25.7703 15.9283C25.7703 16.5419 25.5147 16.9637 25.1312 16.9637ZM21.4371 16.3246C21.3604 16.3117 21.3348 16.3117 21.2836 16.3117C20.8231 16.3117 20.5931 16.4906 20.5931 16.7719C20.5931 16.9637 20.7083 17.0916 20.8872 17.0916C21.2707 17.0916 21.4242 16.7719 21.4371 16.3246ZM22.0762 17.6922H21.373L21.3986 17.3728C21.2197 17.6155 20.9766 17.7433 20.555 17.7433C20.1586 17.7433 19.8136 17.411 19.8136 16.8998C19.8136 16.1713 20.363 15.7239 21.2323 15.7239C21.322 15.7239 21.4624 15.7239 21.5776 15.7368C21.6032 15.6345 21.6161 15.596 21.6161 15.5322C21.6161 15.3276 21.4499 15.2636 21.0664 15.2636C20.849 15.2636 20.5806 15.302 20.4017 15.3659L20.2994 15.3915L20.2482 15.4042L20.3632 14.7139C20.734 14.5988 21.0026 14.5478 21.2964 14.5478C21.9867 14.5478 22.3446 14.8674 22.3446 15.4553C22.3446 15.6088 22.3702 15.7239 22.3064 16.0562L22.1401 17.1555L22.1146 17.3474L22.089 17.5008L22.0764 17.6031V17.6922H22.0762ZM11.0954 15.2763C11.2488 15.2763 11.4661 15.2891 11.6963 15.3274L11.8113 14.6116C11.5812 14.586 11.2744 14.5477 11.0954 14.5477C10.2006 14.5477 9.90666 15.0335 9.90666 15.5958C9.90666 15.9667 10.0728 16.2349 10.5074 16.4394C10.827 16.5929 10.8781 16.6183 10.8781 16.7591C10.8781 16.9506 10.712 17.0659 10.4051 17.0659C10.1623 17.0659 9.93209 17.0274 9.67648 16.938L9.58696 17.6409L9.5996 17.6538L9.75305 17.6794C9.80421 17.692 9.86815 17.705 9.95766 17.7176C10.1493 17.7306 10.3156 17.7432 10.4179 17.7432C11.3128 17.7432 11.6835 17.3982 11.6835 16.7206C11.6835 16.2989 11.4789 16.0433 11.0826 15.8644C10.7374 15.7108 10.6991 15.6855 10.6991 15.5447C10.6991 15.4042 10.8525 15.2763 11.0954 15.2763Z" fill="#1B3771"/>
<path fill-rule="evenodd" clip-rule="evenodd" d="M20.4027 13.7936L20.2619 14.6117C19.9807 14.4711 19.7761 14.4073 19.5461 14.4073C18.9452 14.4073 18.5235 14.9952 18.5235 15.8262C18.5235 16.4015 18.8046 16.7465 19.2778 16.7465C19.4693 16.7465 19.6995 16.6827 19.9551 16.5549L19.8146 17.4112C19.5205 17.4879 19.3288 17.5264 19.1114 17.5264C18.2423 17.5264 17.7053 16.8999 17.7053 15.8903C17.7053 14.548 18.4467 13.6019 19.5077 13.6019C19.6482 13.6019 19.7759 13.6147 19.8782 13.6403L20.198 13.717C20.3004 13.7554 20.326 13.7682 20.4027 13.7936ZM17.8204 14.3561H17.7437C17.4754 14.3561 17.322 14.484 17.079 14.8546L17.1557 14.3816H16.4269L15.9287 17.4495H16.7342C17.028 15.5704 17.1047 15.2509 17.4882 15.2509H17.5394C17.6161 14.8801 17.7182 14.6116 17.8461 14.3688L17.8204 14.3561ZM13.193 17.4112C12.9758 17.4879 12.7968 17.5135 12.6179 17.5135C12.2088 17.5135 11.9786 17.2834 11.9786 16.8361C11.9786 16.7594 11.9914 16.6573 12.0042 16.5676L12.0553 16.2608L12.0937 16.0181L12.4388 13.9215H13.2314L13.1419 14.3817H13.551L13.4486 15.1359H13.0396L12.8223 16.4143C12.8095 16.4654 12.8095 16.5039 12.8095 16.5422C12.8095 16.6956 12.8863 16.7596 13.0779 16.7596C13.1675 16.7596 13.244 16.7596 13.2952 16.734L13.193 17.4112ZM10.1123 15.3532C10.1123 15.7368 10.2912 16.0051 10.713 16.2097C11.0454 16.3631 11.0965 16.4141 11.0965 16.542C11.0965 16.7338 10.9559 16.8232 10.6363 16.8232C10.3935 16.8232 10.1761 16.785 9.92046 16.7083L9.80537 17.4112L9.84373 17.4241L9.98441 17.4497C10.0354 17.4623 10.0995 17.4752 10.2017 17.4752C10.3805 17.5008 10.534 17.5008 10.6363 17.5008C11.4799 17.5008 11.8763 17.1811 11.8763 16.4782C11.8763 16.0562 11.7102 15.8132 11.3139 15.6217C10.9688 15.4683 10.9304 15.43 10.9304 15.2894C10.9304 15.1233 11.0711 15.0465 11.3267 15.0465C11.4802 15.0465 11.6974 15.0593 11.902 15.0849L12.017 14.3819C11.8125 14.3435 11.493 14.3179 11.3139 14.3179C10.4191 14.3178 10.0995 14.7908 10.1123 15.3532ZM26.5259 17.4497H25.7715L25.81 17.1555C25.5926 17.3856 25.3624 17.4879 25.0683 17.4879C24.4803 17.4879 24.0968 16.9896 24.0968 16.2226C24.0968 15.1999 24.6977 14.3306 25.4006 14.3306C25.7203 14.3306 25.9504 14.4712 26.1679 14.7524L26.3468 13.6787H27.1394L26.5259 17.4497ZM25.3496 16.7338C25.7205 16.7338 25.9761 16.2992 25.9761 15.6983C25.9761 15.302 25.8353 15.0974 25.5541 15.0974C25.1962 15.0974 24.9279 15.5193 24.9279 16.1201C24.9279 16.5294 25.0684 16.7338 25.3496 16.7338ZM15.6473 17.3856C15.366 17.4752 15.1104 17.5135 14.8164 17.5135C13.9215 17.5135 13.4613 17.0406 13.4613 16.1329C13.4613 15.0848 14.0494 14.305 14.8547 14.305C15.5194 14.305 15.9411 14.7396 15.9411 15.4171C15.9411 15.6473 15.9156 15.8647 15.8388 16.1841H14.254C14.2412 16.2226 14.2412 16.2482 14.2412 16.2738C14.2412 16.6317 14.4842 16.8106 14.9443 16.8106C15.2382 16.8106 15.4939 16.7594 15.7752 16.6187L15.6473 17.3856ZM15.1999 15.5576V15.4043C15.1999 15.1487 15.0592 15.008 14.8164 15.008C14.5608 15.008 14.3817 15.1999 14.305 15.5576H15.1999ZM7.05711 17.4497H6.26455L6.72477 14.5478L5.68938 17.4497H5.13964L5.0757 14.5734L4.59005 17.4497H3.84863L4.47495 13.6787H5.62544L5.6638 16.018L6.43064 13.6787H7.68343L7.05711 17.4497ZM9.03853 16.0818C8.9618 16.0818 8.92344 16.0691 8.8595 16.0691C8.41206 16.0691 8.18202 16.2352 8.18202 16.542C8.18202 16.7338 8.28433 16.8488 8.46321 16.8488C8.79556 16.8488 9.02574 16.542 9.03853 16.0818ZM9.62649 17.4497H8.96165L8.97444 17.13C8.76983 17.3856 8.50143 17.5008 8.13072 17.5008C7.69607 17.5008 7.40209 17.1685 7.40209 16.6699C7.40209 15.9158 7.91332 15.4812 8.80819 15.4812C8.89771 15.4812 9.0128 15.494 9.14054 15.5066C9.16611 15.4045 9.16611 15.3661 9.16611 15.3149C9.16611 15.1105 9.02544 15.0338 8.65473 15.0338C8.4247 15.0338 8.16893 15.0593 7.99005 15.1105L7.87496 15.1488L7.79823 15.1616L7.91332 14.4714C8.3096 14.3563 8.57801 14.3179 8.87213 14.3179C9.56239 14.3179 9.9331 14.6247 9.9331 15.2126C9.9331 15.3661 9.92031 15.4812 9.86916 15.8263L9.69013 16.913L9.66455 17.1045L9.65176 17.258L9.63897 17.3732L9.62649 17.4497ZM21.6939 16.0818C21.6042 16.0818 21.566 16.0691 21.515 16.0691C21.0548 16.0691 20.8244 16.2352 20.8244 16.542C20.8244 16.7338 20.9397 16.8488 21.1186 16.8488C21.4383 16.8488 21.6809 16.542 21.6939 16.0818ZM22.2818 17.4497H21.6171L21.6298 17.13C21.4253 17.3856 21.1569 17.5008 20.7862 17.5008C20.3516 17.5008 20.0574 17.1685 20.0574 16.6699C20.0574 15.9158 20.5687 15.4812 21.4635 15.4812C21.5532 15.4812 21.6683 15.494 21.7832 15.5066C21.8088 15.4045 21.8218 15.3661 21.8218 15.3149C21.8218 15.1105 21.6809 15.0338 21.3105 15.0338C21.0802 15.0338 20.8119 15.0593 20.6329 15.1105L20.5306 15.1488L20.4539 15.1616L20.5688 14.4714C20.9652 14.3563 21.2335 14.3179 21.5276 14.3179C22.2179 14.3179 22.5758 14.6247 22.5758 15.2126C22.5758 15.3661 22.5758 15.4812 22.512 15.8263L22.3458 16.913L22.3202 17.1045L22.2946 17.258L22.282 17.3732L22.2818 17.4497ZM24.4293 14.3561H24.3526C24.0844 14.3561 23.9309 14.484 23.6879 14.8546L23.7647 14.3816H23.0359L22.5501 17.4495H23.3426C23.6368 15.5704 23.7135 15.2509 24.097 15.2509H24.1481C24.2249 14.8801 24.327 14.6116 24.4549 14.3688L24.4293 14.3561Z" fill="white"/>
</svg>
