<svg width="32" height="32" viewBox="0 0 32 32" fill="none" xmlns="http://www.w3.org/2000/svg">
<circle cx="16" cy="16" r="16" fill="#0099DD"/>
<path d="M10.9176 25V7.54545H17.1392C18.4972 7.54545 19.6222 7.79261 20.5142 8.28693C21.4063 8.78125 22.0739 9.45739 22.517 10.3153C22.9602 11.1676 23.1818 12.1278 23.1818 13.196C23.1818 14.2699 22.9574 15.2358 22.5085 16.0938C22.0653 16.946 21.3949 17.6222 20.4972 18.1222C19.6051 18.6165 18.483 18.8636 17.1307 18.8636H12.8523V16.6307H16.892C17.75 16.6307 18.446 16.483 18.9801 16.1875C19.5142 15.8864 19.9062 15.4773 20.1562 14.9602C20.4062 14.4432 20.5312 13.8551 20.5312 13.196C20.5312 12.5369 20.4062 11.9517 20.1562 11.4403C19.9062 10.929 19.5114 10.5284 18.9716 10.2386C18.4375 9.94886 17.733 9.80398 16.858 9.80398H13.5511V25H10.9176Z" fill="white"/>
</svg>
