<svg width="32" height="32" viewBox="0 0 32 32" fill="none" xmlns="http://www.w3.org/2000/svg">
<circle cx="16" cy="16" r="16" fill="url(#paint0_linear_31_87)"/>
<path fill-rule="evenodd" clip-rule="evenodd" d="M21.1033 12.294C20.7257 12.1522 20.1343 12 19.3959 12C17.5134 12 16.1874 12.9491 16.176 14.3094C16.1654 15.3151 17.1228 15.8761 17.8452 16.2108C18.5869 16.5538 18.8362 16.7726 18.8326 17.0787C18.8281 17.548 18.2403 17.7622 17.6928 17.7622C16.9305 17.7622 16.5253 17.6562 15.8996 17.3949L15.6541 17.2837L15.3867 18.8503C15.8316 19.0456 16.6545 19.2149 17.5089 19.2237C19.5115 19.2237 20.8114 18.2853 20.8262 16.8326C20.8334 16.0366 20.3259 15.4307 19.2268 14.9313C18.5609 14.6076 18.153 14.3915 18.1575 14.0638C18.1575 13.7729 18.5026 13.4617 19.2483 13.4617C19.8714 13.452 20.3225 13.5882 20.6743 13.73L20.8448 13.8107L21.1033 12.294ZM25.9884 12.1282H24.5162C24.0603 12.1282 23.7191 12.2529 23.5187 12.7088L20.6896 19.1219H22.69C22.69 19.1219 23.0171 18.2598 23.0909 18.0703C23.3096 18.0703 25.253 18.0734 25.5308 18.0734C25.5877 18.3183 25.7625 19.1219 25.7625 19.1219H27.5305L25.9884 12.1282ZM23.6394 16.6389C23.7967 16.2358 24.3982 14.6826 24.3982 14.6826C24.387 14.7013 24.5546 14.2776 24.6508 14.0148L24.7796 14.6182L25.2207 16.6389H23.6394ZM12.2894 19.1197L13.4805 12.1216H15.3856L14.1938 19.1197H12.2894ZM10.6916 12.1267L8.82648 16.8988L8.6277 15.9291C8.28062 14.8113 7.19854 13.5998 5.98926 12.9933L7.69482 19.1137L9.71045 19.1115L12.7097 12.1267H10.6916Z" fill="#227FBB"/>
<path fill-rule="evenodd" clip-rule="evenodd" d="M7.09658 12.1224H4.02445L4 12.268C6.39008 12.8472 7.97135 14.2472 8.62781 15.929L7.9599 12.7131C7.84458 12.27 7.51007 12.1378 7.09613 12.1224" fill="#E87E04"/>
<defs>
<linearGradient id="paint0_linear_31_87" x1="16" y1="0" x2="16" y2="32" gradientUnits="userSpaceOnUse">
<stop offset="0.295994" stop-color="#227FBB"/>
<stop offset="0.297716" stop-color="white"/>
<stop offset="0.667949" stop-color="#DDEBF4"/>
<stop offset="0.673115" stop-color="#E87E04"/>
</linearGradient>
</defs>
</svg>
